<svg xmlns="http://www.w3.org/2000/svg" width="230" height="180" viewBox="0 0 230 180">
  <g id="グループ_32" data-name="グループ 32" transform="translate(-485 -3437)">
    <rect id="長方形_15" data-name="長方形 15" width="230" height="180" rx="6" transform="translate(485 3437)" fill="#fff"/>
    <g id="file_type_css_icon_130661" transform="translate(556.076 3458.657)">
      <path id="パス_4" data-name="パス 4" d="M11.66,91.8,3.656,2H91.631L83.617,91.789,47.59,101.778Z" transform="translate(-3.656 -1.697)" fill="#1572b6"/>
      <path id="パス_5" data-name="パス 5" d="M16,88.861,45.114,80.79,51.963,4.061H16Z" transform="translate(27.988 3.283)" fill="#33a9dc"/>
      <path id="パス_6" data-name="パス 6" d="M16,29.228H30.575l1-11.278H16V6.935H43.617l-.264,2.954-2.7,30.354H16Z" transform="translate(27.988 10.651)" fill="#fff"/>
      <path id="パス_7" data-name="パス 7" d="M33.4,29.911l-.05.014L21.081,26.611,20.3,17.827H9.24l1.543,17.294,22.56,6.265.053-.014Z" transform="translate(10.659 38.572)" fill="#ebebeb"/>
      <path id="パス_8" data-name="パス 8" d="M29.617,16.151,28.291,30.9,16.008,34.214v11.46l22.578-6.257.167-1.86,1.914-21.406Z" transform="translate(28.008 34.276)" fill="#fff"/>
      <path id="パス_9" data-name="パス 9" d="M35.86,6.935V17.95H9.255l-.221-2.477-.5-5.584L8.268,6.935Z" transform="translate(8.167 10.651)" fill="#ebebeb"/>
      <path id="パス_10" data-name="パス 10" d="M25.421,13.191V24.206H13.309l-.221-2.477-.5-5.584-.264-2.954Z" transform="translate(18.567 26.688)" fill="#ebebeb"/>
    </g>
  </g>
</svg>
