<svg xmlns="http://www.w3.org/2000/svg" width="230" height="180" viewBox="0 0 230 180">
  <g id="グループ_38" data-name="グループ 38" transform="translate(-963 -3720)">
    <g id="グループ_39" data-name="グループ 39">
      <rect id="長方形_20" data-name="長方形 20" width="230" height="180" rx="6" transform="translate(963 3720)" fill="#fff"/>
      <g id="github-logo_icon-icons.com_73546" transform="translate(1028.068 3747.01)">
        <path id="パス_23" data-name="パス 23" d="M93.293,30.892A50.425,50.425,0,0,0,75.1,12.239,47.989,47.989,0,0,0,50,5.365a48,48,0,0,0-25.1,6.874,50.419,50.419,0,0,0-18.2,18.653A51.1,51.1,0,0,0,0,56.617,50.654,50.654,0,0,0,9.538,86.748a49.065,49.065,0,0,0,24.641,18.519,2.858,2.858,0,0,0,2.6-.467,2.64,2.64,0,0,0,.846-2q0-.2-.033-3.6t-.033-5.938l-1.5.266a18.642,18.642,0,0,1-3.613.234,26.878,26.878,0,0,1-4.524-.467,9.993,9.993,0,0,1-4.362-2,8.464,8.464,0,0,1-2.864-4.1l-.651-1.536a16.755,16.755,0,0,0-2.05-3.4,7.914,7.914,0,0,0-2.832-2.536l-.456-.334a4.826,4.826,0,0,1-.846-.8,3.674,3.674,0,0,1-.586-.934q-.2-.468.325-.769a4.131,4.131,0,0,1,1.888-.3l1.3.2a9.4,9.4,0,0,1,3.223,1.6,10.67,10.67,0,0,1,3.157,3.469,11.671,11.671,0,0,0,3.613,4.172,7.538,7.538,0,0,0,4.264,1.434,18.074,18.074,0,0,0,3.711-.333,12.73,12.73,0,0,0,2.929-1,10.921,10.921,0,0,1,3.19-6.874,43.59,43.59,0,0,1-6.673-1.2,26.212,26.212,0,0,1-6.119-2.6,17.636,17.636,0,0,1-5.241-4.471,21.7,21.7,0,0,1-3.417-7.007A34.1,34.1,0,0,1,18.1,53.946,19.74,19.74,0,0,1,23.242,40.2q-2.409-6.072.455-13.613,1.888-.6,5.6.9a38.71,38.71,0,0,1,5.436,2.57q1.726,1.066,2.767,1.8a45.91,45.91,0,0,1,25,0l2.474-1.6a34.672,34.672,0,0,1,5.988-2.937q3.45-1.334,5.275-.733,2.929,7.541.52,13.613A19.743,19.743,0,0,1,81.9,53.947,34.484,34.484,0,0,1,80.567,63.99,20.848,20.848,0,0,1,77.118,71a18.305,18.305,0,0,1-5.274,4.438,26.261,26.261,0,0,1-6.12,2.6,43.545,43.545,0,0,1-6.673,1.2q3.384,3,3.384,9.476V102.8a2.692,2.692,0,0,0,.815,2,2.774,2.774,0,0,0,2.571.466A49.058,49.058,0,0,0,90.463,86.746,50.664,50.664,0,0,0,100,56.615,51.146,51.146,0,0,0,93.293,30.892Z" transform="translate(0 -5.365)"/>
      </g>
    </g>
  </g>
</svg>
