<svg xmlns="http://www.w3.org/2000/svg" width="230" height="180" viewBox="0 0 230 180">
  <g id="グループ_31" data-name="グループ 31" transform="translate(-272 -3437)">
    <rect id="長方形_15" data-name="長方形 15" width="230" height="180" rx="6" transform="translate(272 3437)" fill="#fff"/>
    <g id="グループ_4" data-name="グループ 4" transform="translate(342.56 3458.97)">
      <path id="パス_11" data-name="パス 11" d="M11.685,92.061,3.655,2H91.89L83.849,92.047l-36.13,10.017Z" transform="translate(-3.655 -2)" fill="#e44f26"/>
      <path id="パス_12" data-name="パス 12" d="M16,89.1,45.2,81.01,52.066,4.061H16Z" transform="translate(28.117 3.304)" fill="#f1662a"/>
      <path id="パス_13" data-name="パス 13" d="M35.946,29.508H21.33L20.322,18.2H35.946V7.151H8.25l.264,2.966,2.712,30.437H35.946Z" transform="translate(8.171 11.257)" fill="#ebebeb"/>
      <path id="パス_14" data-name="パス 14" d="M33.447,30.159l-.05.014-12.3-3.32-.786-8.809H9.221l1.547,17.34L33.4,41.666l.05-.014Z" transform="translate(10.67 39.293)" fill="#ebebeb"/>
      <path id="パス_15" data-name="パス 15" d="M15.989,13.407V24.453h13.6L28.311,38.78,15.989,42.1V53.6l22.647-6.279.164-1.865,2.595-29.079.272-2.966H15.989Z" transform="translate(28.089 27.358)" fill="#fff"/>
      <path id="パス_16" data-name="パス 16" d="M15.989,7.151V18.2H42.67l.222-2.48.5-5.6.264-2.966Z" transform="translate(28.089 11.257)" fill="#fff"/>
    </g>
  </g>
</svg>
