<svg xmlns="http://www.w3.org/2000/svg" width="230.232" height="180" viewBox="0 0 230.232 180">
  <g id="グループ_34" data-name="グループ 34" transform="translate(-944.768 -3437)">
    <path id="パス_53" data-name="パス 53" d="M6.9,0H223.1c3.811,0,6.9,2.686,6.9,6V174c0,3.314-3.089,6-6.9,6H6.9c-3.811,0-6.9-2.686-6.9-6V6C0,2.686,3.089,0,6.9,0Z" transform="translate(944.768 3437)" fill="#fff"/>
    <text id="JavaScript_jQuery_" data-name="JavaScript (jQuery)" transform="translate(945 3573)" fill="#707070" font-size="24" font-family="NotoSerif, Noto Serif"><tspan x="6.338" y="26">JavaScript (jQuery)</tspan></text>
    <g id="グループ_30" data-name="グループ 30" transform="translate(10.507 4.819)">
      <g id="グループ_29" data-name="グループ 29" transform="translate(1008.863 3449.95)">
        <g id="javascript_original_logo_icon_146455_1_" data-name="javascript_original_logo_icon_146455 (1)" transform="translate(0 13.99)">
          <path id="パス_1" data-name="パス 1" d="M1.408,1.408H92.182V92.183H1.408Z" transform="translate(-1.408 -1.408)" fill="#f0db4f"/>
          <path id="パス_2" data-name="パス 2" d="M93.8,86.143C93.132,82,90.432,78.523,82.433,75.28c-2.779-1.277-5.876-2.191-6.8-4.3a4.685,4.685,0,0,1-.164-2.658c.6-2.407,3.469-3.158,5.747-2.468a6.323,6.323,0,0,1,3.693,3.425c3.917-2.536,3.909-2.52,6.644-4.263a16.984,16.984,0,0,0-2.191-2.933C87.007,59.455,83.8,58.1,78.662,58.2l-2.674.346a12.135,12.135,0,0,0-6.437,3.8c-4.3,4.876-3.072,13.409,2.157,16.921,5.151,3.866,12.719,4.746,13.685,8.361.94,4.426-3.253,5.859-7.421,5.35-3.072-.639-4.78-2.2-6.627-5.039-3.4,1.967-3.4,1.967-6.895,3.977a15.342,15.342,0,0,0,3.089,4.2c6.575,6.67,23.03,6.342,25.981-3.753a12.485,12.485,0,0,0,.276-6.222Zm-34-27.4H51.309l-.035,21.951c0,4.668.241,8.948-.518,10.26-1.242,2.58-4.461,2.26-5.928,1.76A7.285,7.285,0,0,1,41.7,89.457a4.277,4.277,0,0,0-.484-.777l-6.9,4.228a13.64,13.64,0,0,0,5,5.729,16.479,16.479,0,0,0,12.132,1.493A10.714,10.714,0,0,0,58.3,94.763c1.933-3.564,1.518-7.878,1.5-12.649C59.843,74.33,59.8,66.547,59.8,58.738Z" transform="translate(-10.452 -17.018)" fill="#323330"/>
        </g>
        <path id="jquery_plain_logo_icon_146444" d="M27.173,45.221c-.332-.075-.654-.179-.978-.274l-.244-.074q-.475-.145-.942-.306l-.129-.047c-.28-.1-.556-.2-.831-.308l-.233-.092c-.3-.119-.6-.243-.9-.373l-.179-.079c-.254-.115-.506-.231-.757-.352l-.219-.1c-.2-.1-.391-.2-.585-.3-.13-.068-.262-.133-.39-.2-.237-.127-.47-.259-.7-.393l-.237-.132c-.308-.181-.612-.369-.913-.559l-.246-.164c-.219-.141-.436-.284-.65-.432l-.209-.147q-.31-.219-.614-.444l-.272-.206c-.186-.142-.371-.286-.554-.433l-.247-.2c-.233-.192-.463-.384-.69-.582l-.075-.064c-.246-.216-.487-.437-.726-.66l-.2-.2c-.177-.168-.35-.338-.521-.511l-.2-.2q-.326-.334-.64-.677l-.031-.034c-.221-.242-.437-.489-.649-.739l-.17-.2q-.237-.285-.467-.578L11.6,34.94c-.184-.239-.364-.476-.539-.718C6.19,27.584,4.441,18.429,8.331,10.911L4.882,15.285C.465,21.633,1.015,29.893,4.389,36.639c.08.162.165.321.247.48l.158.3.1.175.176.315q.157.277.322.552l.183.3c.122.2.246.391.374.585l.159.246c.175.262.356.524.541.781l.016.02.091.123c.16.221.326.44.493.656l.185.236q.224.282.456.56l.174.208c.207.244.419.487.635.726l.013.013.025.027c.211.23.427.455.646.68l.207.209c.169.171.342.338.515.505l.211.2c.232.219.467.434.706.644l.011.009.123.1c.211.183.425.364.642.542l.266.212q.265.213.535.418l.286.217q.3.219.6.431l.219.155.06.043c.191.132.387.259.583.386l.252.168c.3.19.6.378.912.559l.252.142q.339.2.685.384c.125.067.253.131.379.2.163.085.325.172.491.255l.113.055.2.1c.257.123.515.243.777.359l.164.074q.449.2.906.377l.221.087c.282.109.568.216.855.317l.107.037c.315.11.633.212.954.312l.23.069a9.3,9.3,0,0,0,.984.278C44.2,55.367,50.4,38.634,50.4,38.634,45.189,45.424,35.938,47.215,27.173,45.221Zm-7.7-17.314a11.219,11.219,0,0,0,1.644,2.053c.23.254.471.5.717.744l.189.186c.239.231.481.459.732.68l.03.026.007.007c.278.244.564.477.855.708l.194.151c.292.224.59.443.894.653l.026.02c.135.093.272.179.409.269l.193.128c.218.14.439.276.663.407l.094.054c.193.111.39.221.586.328l.209.109c.136.071.272.143.41.212l.062.028c.281.139.565.272.855.4l.189.078c.231.1.466.195.7.284l.3.11c.213.079.428.151.644.224l.291.093a7.127,7.127,0,0,0,.931.269C47.8,38.859,51.6,26.16,51.6,26.16c-3.432,4.943-10.08,7.3-17.173,5.461-.315-.083-.626-.173-.934-.27l-.28-.091q-.329-.106-.654-.225l-.295-.11c-.237-.091-.471-.185-.7-.284l-.189-.08q-.437-.19-.86-.4c-.146-.071-.289-.146-.432-.219l-.249-.128c-.183-.1-.366-.2-.546-.308l-.131-.074c-.223-.13-.443-.265-.661-.4l-.2-.133c-.143-.093-.287-.188-.428-.283-.3-.21-.6-.429-.892-.652l-.2-.158a19.889,19.889,0,0,1-6.736-9.6A14.9,14.9,0,0,1,21.2,6.25l-2.61,3.685c-3.195,4.6-3.021,10.751-.529,15.613a20.172,20.172,0,0,0,1.413,2.36ZM36.863,22.22c.136.05.272.095.409.142l.181.057a5.239,5.239,0,0,0,.588.17c9.107,1.76,11.578-4.673,12.235-5.621-2.164,3.115-5.8,3.863-10.262,2.78-.352-.085-.74-.213-1.08-.333a13.046,13.046,0,0,1-3.53-1.9C31.411,14.482,28.931,8.7,31.536,4L30.126,5.94a9.612,9.612,0,0,0-.761,9.274,13.063,13.063,0,0,0,7.5,7.006Z" transform="translate(54.486 -3.997)" fill="#0868ac"/>
      </g>
    </g>
  </g>
</svg>
