<svg xmlns="http://www.w3.org/2000/svg" width="80" height="57" viewBox="0 0 80 57">
  <g id="グループ_44" data-name="グループ 44" transform="translate(-1618 -3505)">
    <rect id="長方形_57" data-name="長方形 57" width="80" height="57" transform="translate(1618 3505)" fill="#f89496"/>
    <g id="グループ_43" data-name="グループ 43" transform="translate(1618 3505)">
      <path id="letter_icon-icons.com_67753" d="M0,8.5v57H79.8V8.5ZM48.711,37.748,41.468,45a2.31,2.31,0,0,1-3.1.034l-7.279-7.288.064-.062L4.851,11.151H74.967L48.647,37.687ZM27.3,37.706,2.66,61.331V13.037Zm1.875,1.878,7.346,7.356a4.935,4.935,0,0,0,3.369,1.316A5.034,5.034,0,0,0,43.319,46.9l7.31-7.32L74.884,62.849H4.9ZM52.5,37.708,77.14,13.036V61.331Z" transform="translate(0 -8.5)" fill="#fff"/>
    </g>
  </g>
</svg>
