<svg xmlns="http://www.w3.org/2000/svg" width="230" height="180" viewBox="0 0 230 180">
  <g id="グループ_37" data-name="グループ 37" transform="translate(-698 -3720)">
    <rect id="長方形_18" data-name="長方形 18" width="230" height="180" rx="6" transform="translate(698 3720)" fill="#fff"/>
    <path id="rails_plain_logo_icon_146376" d="M88.835,12.361a37.506,37.506,0,0,0-30.247-1.7A45.57,45.57,0,0,0,35.88,28.209,133.927,133.927,0,0,0,15.546,73.58a97.477,97.477,0,0,0-2.928,25.986c.028.7.133.906.2,2.519H61.5c-.14-1.613-.231-1.142-.352-1.449a124.074,124.074,0,0,1-5.99-20.32c-2.014-9.879-3.069-19.942-.989-29.912,2.912-13.961,10.87-24.035,24.287-29.259,7.6-2.957,14.813-2.116,21.139,3.437.058.051.177.02.332.045L102,21.5a52.639,52.639,0,0,0-13.161-9.134ZM3.077,76.6C2.706,79.761,2.359,82.723,2,85.832l8.977,1.077,1.644-9.591L3.077,76.6ZM20.7,49.03l-8.444-3.3L9.524,53.473l8.605,2.758C19,53.787,19.819,51.488,20.7,49.03ZM60.549,92.3c2.883.215,5.771.362,8.954.548-1.156-2.4-2.182-4.575-3.257-6.721a1.059,1.059,0,0,0-.785-.462c-2.446-.035-4.893-.02-7.492-.02.585,2.119,1.094,4.075,1.69,6A1.22,1.22,0,0,0,60.549,92.3ZM35.008,25.559l-6.415-4.248-5.128,5.73,6.595,4.432ZM55.438,68.6a.992.992,0,0,0,.45.773c2.31,1.039,4.645,2.028,7.187,3.123-.106-2.01-.177-3.689-.3-5.366a1.2,1.2,0,0,0-.387-.86c-2.122-1.174-4.273-2.3-6.625-3.544-.128,2.149-.259,4.009-.327,5.873Zm-1.9-58.2L49.145,5.412,43.1,8.555l4.4,5.358,6.04-3.517Zm2.754,39.656a1.313,1.313,0,0,0,.3,1.174c1.754,1.582,3.568,3.1,5.585,4.823.462-1.935.9-3.66,1.267-5.4a1.2,1.2,0,0,0-.24-.992c-1.569-1.265-3.189-2.47-4.868-3.751C57.6,47.373,56.882,48.686,56.291,50.052ZM66.331,7.777c2.242.06,4.486.034,6.854.034-.236-1.648-.349-2.9-.631-4.106a1.418,1.418,0,0,0-.99-.869c-2.247-.182-4.5-.252-6.976-.37.33,1.664.581,3.13.937,4.571a1.174,1.174,0,0,0,.806.741Zm2.73,28.769a.936.936,0,0,0,.023-.791c-1.1-1.723-2.246-3.42-3.43-5.205l-3.839,3.526,5.308,5.882C67.836,38.716,68.473,37.644,69.06,36.546ZM73.2,24.831l2.293,4.259c3.588-1.966,3.931-2.677,2.661-5.511L73.2,24.831ZM90.368,11.708c1.493.921,3.069,1.706,4.671,2.568l1.073-1.669c-1.953-1.428-3.839-2.81-5.978-4.376a16.193,16.193,0,0,0-.177,2.127c.026.469.1,1.161.411,1.35ZM88.285,25.191c1.613.175,4.032.342,5.645.519V23.517c-1.613-.353-4.032-.7-5.645-1.067Z" transform="translate(773.004 3744.915)" fill="#a62c46" fill-rule="evenodd"/>
  </g>
</svg>
