<svg xmlns="http://www.w3.org/2000/svg" width="230" height="180" viewBox="0 0 230 180">
  <g id="グループ_36" data-name="グループ 36" transform="translate(-472 -3720)">
    <rect id="長方形_17" data-name="長方形 17" width="230" height="180" rx="6" transform="translate(472 3720)" fill="#fff"/>
    <path id="ruby_plain_logo_icon_146361" d="M29.285,90.332,95.13,99.321C87.6,86.783,80.261,74.566,72.865,62.249L59.3,70.989,29.285,90.332Zm72.073-69.4Q98.44,25.314,95.521,29.7,85.514,44.75,75.514,59.81c-.371.559-.852,1-.329,1.865q9.66,15.952,19.235,31.957a42.152,42.152,0,0,0,3.34,4.975q1.943-38.8,3.884-77.592l-.285-.082ZM13.443,54.091a1.573,1.573,0,0,0,1.4.279c6.177-3.036,12.394-6,18.436-9.29,1.971-1.071,3.486-2.991,5.184-4.548Q46.9,32.8,55.31,25.043a4.177,4.177,0,0,0,.954-1.024c2.015-3.938,4-7.9,6.046-11.969-2.445-.919-4.763-1.818-7.109-2.636a1.729,1.729,0,0,0-1.164.3C48.6,12.75,43.071,15.623,37.812,18.932c-2.631,1.656-4.775,4.1-7.1,6.221C26.953,28.58,23.2,32.015,19.5,35.5a19.29,19.29,0,0,0-2.642,3.1c-2.531,3.685-4.986,7.423-7.554,11.268,1.435,1.484,2.74,2.9,4.136,4.225ZM36.02,49.053c-3.073,12.982-6.127,25.891-9.284,39.224L70.36,60.169Zm61.565-28L60.508,27.252,73.091,57.858c8.212-12.339,16.261-24.431,24.494-36.8ZM36.535,46.4,70.191,57.324C65.973,47.048,61.9,37.132,57.743,27.006,50.661,33.481,43.685,39.86,36.535,46.4ZM13.908,61.661,2.128,89.819l22.435-.663L13.908,61.661ZM24.828,82.627l.278-.061c2.694-11.2,5.426-22.323,8.176-33.961l-18,9.355C18.352,65.934,21.624,74.346,24.828,82.627Zm68.23-63.385Q87.685,17.818,82.31,16.4C77.158,15.044,72,13.706,66.855,12.339c-.644-.171-1.109-.283-1.487.492-1.82,3.728-3.7,7.427-5.544,11.141a2.457,2.457,0,0,0-.089.552l33.317-5.049ZM72.275,10.762l29.2,8.077L96.649,5.094,72.318,10.488l-.043.274ZM27.3,92.483c-3.616-.417-7.329-.034-11,.03-3.013.051-6.025.165-9.038.259a1.2,1.2,0,0,0-.929.407q37.361,3.454,74.721,6.909l.051-.333-23.953-3.27c-9.949-1.359-19.882-2.853-29.856-4ZM2.621,81.225q4.814-11.171,9.628-22.342a1.408,1.408,0,0,0-.333-1.854c-1.348-1.283-2.6-2.666-4.074-4.2C5.85,62.664,3.907,72.254,1.963,81.844l.218.1a5.651,5.651,0,0,0,.44-.721ZM65.88,8.8c5.412-1.4,10.9-2.488,16.363-3.706.353-.08.7-.2,1.047-.3l-.054-.267L59.782,7.684c2.2.962,3.9,1.68,6.1,1.113Z" transform="translate(535.357 3746.472)" fill="#d91404" stroke="#fff" stroke-width="1" fill-rule="evenodd"/>
  </g>
</svg>
