<svg xmlns="http://www.w3.org/2000/svg" width="225" height="225" viewBox="0 0 225 225">
  <g id="グループ_25" data-name="グループ 25" transform="translate(-936 -2080)">
    <g id="グループ_13" data-name="グループ 13" transform="translate(-263 -1025)">
      <g id="楕円形_6" data-name="楕円形 6" transform="translate(1199 3105)" fill="#fff" stroke="#707070" stroke-width="1">
        <ellipse cx="111.5" cy="112.5" rx="111.5" ry="112.5" stroke="none"/>
        <ellipse cx="111.5" cy="112.5" rx="111" ry="112" fill="none"/>
      </g>
    </g>
    <g id="WordPressのロゴアイコン_1_2_" data-name="WordPressのロゴアイコン 1 (2)" transform="translate(936 2080)">
      <path id="パス_47" data-name="パス 47" d="M112.5,0A112.5,112.5,0,1,0,225,112.5,112.5,112.5,0,0,0,112.5,0Zm0,203.906A91.406,91.406,0,1,1,203.906,112.5,91.51,91.51,0,0,1,112.5,203.906Z" fill="#00749a"/>
      <path id="パス_48" data-name="パス 48" d="M228.377,171.723a44.035,44.035,0,0,0,2.012-10.349c.44-7.686-1.779-15.191-6.987-23.624l-.96-1.54c-2.212-3.53-4.5-7.18-5.652-11.349-1.9-6.921.876-13.5,7.083-16.759a15.035,15.035,0,0,1,5.453-1.3l1,.007-2.178-1.732c-1.458-1.167-2.835-2.27-4.264-3.3A77.115,77.115,0,0,0,199.332,89.9a82.155,82.155,0,0,0-22.038-3.083c-2.48,0-4.99.121-7.463.359a80.147,80.147,0,0,0-32.1,10,78.721,78.721,0,0,0-25.783,23.361c-.2.217-.394.422-.284.665.065.154.17.233.544.233.06,0,.573-.035.573-.035q1.742.05,3.48.05c3.819,0,7.592-.167,10.779-.328,1.373-.069,2.742-.161,4.113-.252,2.054-.137,4.106-.272,6.322-.342a3.394,3.394,0,0,1,2.686,1.111,3.222,3.222,0,0,1,.591,2.7c-.3,1.586-1.3,2.38-3.235,2.576-2.533.259-5.079.472-7.621.628-.443.028-.685.106-.78.252s-.069.4.085.816c.479,1.256,11.975,34.547,20.371,58.856,4.121,11.932,7.394,21.41,8,23.15l16.887-49.315a1.985,1.985,0,0,0,.1-1.515q-5.9-15.57-11.724-31.165a1.44,1.44,0,0,0-1.517-1.1l-1.641-.115a43.632,43.632,0,0,1-5.959-.672,3.055,3.055,0,0,1-2.153-1.515,3.157,3.157,0,0,1-.064-2.716c.551-1.389,1.591-2.008,3.372-2.008l.426.01,5.664.317c3.052.179,6.107.357,9.163.488q2.775.12,5.552.115c6.469,0,13.04-.436,19.392-.86l.64-.044c.321-.023.646-.046.969-.046a3.621,3.621,0,0,1,1.646.333,3.21,3.21,0,0,1-1.263,6.052c-2.526.289-5.07.51-7.613.651-.564.028-.857.123-.983.311s-.1.482.074.969c.535,1.476,9.221,26.615,16.883,48.8,5.648,16.348,10.665,30.87,11.079,32.418l.192-.367a1.646,1.646,0,0,0,.156-.342l2.991-9.7C222.717,190.323,225.585,181.036,228.377,171.723Z" transform="translate(-64.286 -50.115)" fill="#00749a"/>
      <path id="パス_49" data-name="パス 49" d="M377.352,184.348c-1.142-2.678-2.485-5.288-3.854-7.8,0,0,.069,1.474.1,1.865.756,8.181.621,14.223-2.251,22.707-2.554,7.551-17.758,50.35-24.25,68.628l-3.214,9.058c16.832-9.791,28.9-24.319,34.916-42.029l.261-.791C384.667,218.855,384.046,200.034,377.352,184.348Z" transform="translate(-193.777 -100.995)" fill="#00749a"/>
      <path id="パス_50" data-name="パス 50" d="M86.331,194.8a73.376,73.376,0,0,0,.386,49.219c6.985,19.431,21.779,35.671,39.59,43.475-1.4-4.269-36.852-98.77-37.244-99.592A73.668,73.668,0,0,0,86.331,194.8Z" transform="translate(-46.399 -107.391)" fill="#00749a"/>
      <path id="パス_51" data-name="パス 51" d="M230.2,273.75s-7.7,21.9-10.464,29.74q-6.005,17.013-12.065,34a1.088,1.088,0,0,0-.074.847c.09.17.3.295.692.4a79.612,79.612,0,0,0,15.452,2.611q2.895.191,5.772.193h0a81.124,81.124,0,0,0,26.019-4.255l-24.675-65.313S230.354,273.289,230.2,273.75Z" transform="translate(-117.124 -154.156)" fill="#00749a"/>
    </g>
  </g>
</svg>
