<svg xmlns="http://www.w3.org/2000/svg" width="230" height="180" viewBox="0 0 230 180">
  <g id="グループ_35" data-name="グループ 35" transform="translate(-234 -3720)">
    <rect id="長方形_19" data-name="長方形 19" width="230" height="180" rx="6" transform="translate(234 3720)" fill="#fff"/>
    <g id="_x32__stroke" transform="translate(299 3746)">
      <g id="Wordpress_1_">
        <rect id="長方形_14" data-name="長方形 14" width="101" height="101" fill="none"/>
        <path id="Wordpress" d="M51.258,54.778,36.142,98.7a50.395,50.395,0,0,0,30.959-.8,4.788,4.788,0,0,1-.359-.693ZM94.577,26.205a38.527,38.527,0,0,1,.34,5.179,47.562,47.562,0,0,1-3.832,18.043L75.7,93.912A50.378,50.378,0,0,0,94.577,26.205Zm-10.2,21.625c0-6.227-2.238-10.538-4.153-13.891-2.553-4.153-4.949-7.666-4.949-11.816,0-4.631,3.51-8.941,8.46-8.941.224,0,.434.028.652.041A50.364,50.364,0,0,0,8.284,22.7c1.184.038,2.3.06,3.243.06,5.267,0,13.425-.639,13.425-.639a2.081,2.081,0,0,1,.321,4.15s-2.73.321-5.765.482L37.852,81.317,48.878,48.255l-7.847-21.5c-2.714-.161-5.286-.482-5.286-.482-2.714-.161-2.4-4.31.321-4.15,0,0,8.318.639,13.268.639,5.267,0,13.425-.639,13.425-.639a2.081,2.081,0,0,1,.321,4.15s-2.733.321-5.765.482L75.521,80.9l5.028-16.787C82.72,57.144,84.379,52.141,84.379,47.831ZM0,50.372A50.376,50.376,0,0,0,28.39,95.706L4.36,29.872A50.206,50.206,0,0,0,0,50.372Z" fill="#00759d" fill-rule="evenodd"/>
      </g>
    </g>
  </g>
</svg>
