<svg xmlns="http://www.w3.org/2000/svg" width="225" height="225" viewBox="0 0 225 225">
  <defs>
    <style>
      .cls-1 {
        fill: #6694dd;
      }

      .cls-2 {
        fill: #fff;
      }
    </style>
  </defs>
  <g id="code_coding_icon_153713" transform="translate(-407.164 -424.115)">
    <path id="パス_24" data-name="パス 24" class="cls-1" d="M519.527,649.115a112.489,112.489,0,1,1,43.9-8.867A112.489,112.489,0,0,1,519.527,649.115Z" transform="translate(0 0)"/>
    <path id="パス_25" data-name="パス 25" class="cls-2" d="M765.75,845.709a7.2,7.2,0,0,1-5.076-12.276l68.69-68.69a7.185,7.185,0,0,1,10.153,10.169l-68.69,68.69A7.151,7.151,0,0,1,765.75,845.709Z" transform="translate(-278.603 -268.376)"/>
    <path id="パス_26" data-name="パス 26" class="cls-2" d="M706.773,777.956a7.184,7.184,0,0,1-4.294-1.421l-18.661-13.9a7.2,7.2,0,0,1,0-11.526l18.661-13.9a7.187,7.187,0,1,1,8.588,11.526l-10.935,8.141,10.935,8.141a7.184,7.184,0,0,1-4.294,12.946Z" transform="translate(-221.131 -251.115)"/>
    <path id="パス_27" data-name="パス 27" class="cls-2" d="M1137.539,1092.173a7.183,7.183,0,0,1-4.294-12.946l10.919-8.141-10.919-8.141a7.183,7.183,0,1,1,8.573-11.527l18.676,13.905a7.2,7.2,0,0,1,0,11.525l-18.677,13.9A7.168,7.168,0,0,1,1137.539,1092.173Z" transform="translate(-584.136 -504.292)"/>
  </g>
</svg>
