<?xml version="1.0" ?><svg enable-background="new 0 0 32 32" version="1.1" viewBox="0 0 32 32" xml:space="preserve" xmlns="http://www.w3.org/2000/svg" xmlns:xlink="http://www.w3.org/1999/xlink"><g id="Solid"><g><path d="M3.918,0v32h24.165V6.689L21.394,0H3.918z M27.082,31H4.918V1h16.062l0,0v6.107h6.103V31z"/><path d="M19.98,2.001H5.917v27.997h20.165V8.108H19.98V2.001z M14.074,23.105c0,0.575-0.104,0.947-0.314,1.115    c-0.21,0.169-0.675,0.253-1.393,0.253c-0.815,0-1.317-0.133-1.505-0.399s-0.281-0.979-0.281-2.138c0-0.682,0.127-1.13,0.381-1.346    c0.255-0.215,0.786-0.322,1.596-0.322c0.589,0,0.982,0.089,1.181,0.266c0.197,0.176,0.297,0.526,0.297,1.052l0.003,0.094h-0.787    v-0.106c0-0.271-0.051-0.443-0.153-0.519c-0.102-0.076-0.334-0.113-0.697-0.113c-0.486,0-0.778,0.059-0.877,0.178    c-0.098,0.119-0.146,0.473-0.146,1.06c0,0.792,0.044,1.26,0.132,1.405s0.372,0.218,0.852,0.218c0.39,0,0.643-0.04,0.759-0.121    s0.174-0.259,0.174-0.533l-0.006-0.185h0.787V23.105z M17.416,24.233c-0.212,0.16-0.679,0.24-1.401,0.24    c-0.649,0-1.081-0.078-1.294-0.236c-0.213-0.157-0.319-0.476-0.319-0.956l-0.003-0.151h0.763l0.003,0.088    c0,0.288,0.051,0.465,0.151,0.529s0.376,0.097,0.826,0.097c0.352,0,0.575-0.037,0.672-0.111c0.098-0.075,0.146-0.247,0.146-0.518    c0-0.2-0.036-0.333-0.11-0.398c-0.073-0.065-0.232-0.105-0.477-0.119l-0.433-0.027c-0.654-0.039-1.072-0.13-1.254-0.272    c-0.182-0.144-0.272-0.451-0.272-0.924c0-0.482,0.109-0.804,0.328-0.964c0.22-0.161,0.657-0.241,1.312-0.241    c0.622,0,1.041,0.074,1.257,0.222c0.216,0.146,0.324,0.435,0.324,0.862v0.157h-0.767c-0.004-0.038-0.006-0.066-0.006-0.084    c-0.019-0.232-0.069-0.378-0.154-0.438s-0.284-0.09-0.6-0.09c-0.371,0-0.614,0.034-0.728,0.104    c-0.114,0.068-0.172,0.213-0.172,0.433c0,0.26,0.047,0.417,0.14,0.469c0.093,0.053,0.399,0.093,0.92,0.121    c0.616,0.034,1.014,0.122,1.194,0.264s0.271,0.435,0.271,0.881C17.734,23.717,17.628,24.072,17.416,24.233z M21.021,20.49    c0.216,0.146,0.325,0.435,0.325,0.862v0.157H20.58c-0.004-0.038-0.006-0.066-0.006-0.084c-0.019-0.232-0.07-0.378-0.155-0.438    c-0.084-0.06-0.284-0.09-0.599-0.09c-0.372,0-0.614,0.034-0.729,0.104c-0.114,0.068-0.171,0.213-0.171,0.433    c0,0.26,0.046,0.417,0.14,0.469c0.093,0.053,0.399,0.093,0.92,0.121c0.615,0.034,1.014,0.122,1.194,0.264s0.271,0.435,0.271,0.881    c0,0.549-0.106,0.903-0.318,1.064c-0.212,0.16-0.68,0.24-1.401,0.24c-0.65,0-1.082-0.078-1.295-0.236    c-0.213-0.157-0.319-0.476-0.319-0.956l-0.003-0.151h0.763l0.003,0.088c0,0.288,0.051,0.465,0.151,0.529    c0.102,0.064,0.377,0.097,0.827,0.097c0.351,0,0.575-0.037,0.672-0.111c0.097-0.075,0.146-0.247,0.146-0.518    c0-0.2-0.037-0.333-0.11-0.398c-0.074-0.065-0.233-0.105-0.478-0.119L19.65,22.67c-0.654-0.039-1.071-0.13-1.253-0.272    c-0.182-0.144-0.272-0.451-0.272-0.924c0-0.482,0.109-0.804,0.328-0.964c0.219-0.161,0.656-0.241,1.312-0.241    C20.387,20.268,20.806,20.342,21.021,20.49z"/></g></g></svg>