<svg xmlns="http://www.w3.org/2000/svg" width="230" height="180" viewBox="0 0 230 180">
  <g id="グループ_33" data-name="グループ 33" transform="translate(-703 -3437)">
    <rect id="長方形_15" data-name="長方形 15" width="230" height="180" rx="6" transform="translate(703 3437)" fill="#fff"/>
    <text id="Sass" transform="translate(703 3573)" fill="#707070" font-size="24" font-family="NotoSerif, Noto Serif"><tspan x="90.889" y="26">Sass</tspan></text>
    <path id="sass_original_logo_icon_146350" d="M1.219,55.354a5.424,5.424,0,0,0,.316,1.585,19.477,19.477,0,0,0,4.221,7.587,50.023,50.023,0,0,0,9.358,8.211c2.927,2.1,5.913,4.161,8.852,6.249.5.359.981.771,1.529,1.211-.471.255-.863.479-1.27.686a68,68,0,0,0-11.048,6.843,22.6,22.6,0,0,0-5.492,5.558C5.407,96.88,4.6,100.712,6.3,104.8a6.8,6.8,0,0,0,2.319,2.99,3.427,3.427,0,0,0,1.138.588c1.036.244,2.092.4,3.141.6l2.971,0a18.483,18.483,0,0,0,8.978-3.283,19.7,19.7,0,0,0,8.293-11.839,20.9,20.9,0,0,0-.122-10.925c-.1-.337-.219-.667-.347-.993s-.277-.644-.454-1.05l6.735-3.873.1.086c-.122.4-.253.8-.363,1.2a27.277,27.277,0,0,0-1.141,8.93,17.137,17.137,0,0,0,3,8.959,4.344,4.344,0,0,0,6.8.073A15.687,15.687,0,0,0,48.9,93.8c1.1-2.268,2.115-4.575,3.164-6.867l.183-.419c-.075,1.085-.164,2.038-.2,2.992a11.405,11.405,0,0,0,.534,4.388,3.03,3.03,0,0,0,2.566,2.278,3.226,3.226,0,0,0,2.406-.878,10.171,10.171,0,0,0,2.636-3.133c1.862-3.419,3.774-6.818,5.462-10.324,1.826-3.792,3.422-7.694,5.118-11.55l.28-.684c.4,1.574.68,3.116,1.194,4.575a43.239,43.239,0,0,0,2.142,4.954,1.482,1.482,0,0,1-.191,1.888c-2.21,2.664-4.381,5.361-6.555,8.055a18.1,18.1,0,0,0-1.361,1.849,3.625,3.625,0,0,0-.47,1.336A1.7,1.7,0,0,0,67.163,94.2a9.463,9.463,0,0,0,2.653.189,15.536,15.536,0,0,0,8.223-3.092c3.155-2.337,4.168-5.526,3.4-9.306a21.619,21.619,0,0,0-.928-3.011,1.112,1.112,0,0,1,.12-1.173A95.842,95.842,0,0,0,87.316,66.47a2.335,2.335,0,0,1,.3-.472,29.426,29.426,0,0,0,3.378,9.591c-.893.861-1.778,1.642-2.578,2.5a17.246,17.246,0,0,0-4.088,6.46,7.632,7.632,0,0,0-.454,3.335,2.81,2.81,0,0,0,3.47,2.551,15.772,15.772,0,0,0,9.415-5.8,7.631,7.631,0,0,0,1.077-6.967c-.184-.674-.4-1.337-.638-2.11.932-.289,1.84-.636,2.779-.85a24.63,24.63,0,0,1,14.4.842,10.869,10.869,0,0,1,6.275,5.457c1.605,3.31.718,6.45-2.4,8.542a5.35,5.35,0,0,0-.865.593.851.851,0,0,0-.2.656c.021.12.339.271.522.269a4.775,4.775,0,0,0,2.655-1.1,8.178,8.178,0,0,0,3.774-5.7l.062-.184-.075-1.6c-.03-.092.023-.183.016-.253a12.52,12.52,0,0,0-5.106-8.51,18.626,18.626,0,0,0-11.019-3.71,24.881,24.881,0,0,0-9.565,1.472c-.879.318-1.749.7-2.633,1.051-.119-.215-.246-.42-.351-.633-.907-1.857-2.006-3.632-2.249-5.762a12.9,12.9,0,0,1-.024-4.519c.346-1.439.8-2.853,1.22-4.273a1.041,1.041,0,0,0-.633-1.469,2.8,2.8,0,0,0-.77-.253,11.858,11.858,0,0,0-5.065.376A1.451,1.451,0,0,0,86.8,57.159c-.074.373-.226.731-.332,1.1a27.488,27.488,0,0,1-1.443,4.55c-1.757,3.658-3.763,7.179-5.816,10.674-.222.377-.456.747-.737,1.2a15.789,15.789,0,0,1-1.723-4.449,13.654,13.654,0,0,1-.024-5.367c.332-1.328.766-2.632,1.166-3.943a.913.913,0,0,0-.462-1.278,2.718,2.718,0,0,0-.929-.36,11.4,11.4,0,0,0-5.244.429,1.417,1.417,0,0,0-.974,1.065A41.064,41.064,0,0,1,68.727,65.6c-2.717,6.23-5.513,12.427-8.305,18.624-.583,1.294-1.266,2.543-1.923,3.8a8.831,8.831,0,0,1-.617.9.734.734,0,0,1-.23-.467,12.9,12.9,0,0,1,.062-2.386c.459-2.329.988-4.646,1.546-6.954.46-1.906,1-3.795,1.506-5.688a1.785,1.785,0,0,0-.281-1.759,2.63,2.63,0,0,0-3.312-.4l-.419.237.081-.676a10.529,10.529,0,0,0-.158-4.32,3.437,3.437,0,0,0-3.61-2.746,7.755,7.755,0,0,0-2.559.487,19.356,19.356,0,0,0-8.116,6.433,2.539,2.539,0,0,1-.741.641c-2.834,1.571-5.676,3.123-8.518,4.68l-3.163,1.733c-.848-.809-1.619-1.649-2.494-2.361C24.8,73.2,22.09,71.075,19.4,68.921A31.828,31.828,0,0,1,12.939,62.5,11.5,11.5,0,0,1,10.7,56.232a14.7,14.7,0,0,1,2.246-8.191A31.421,31.421,0,0,1,20.4,39.884a69.066,69.066,0,0,1,9.8-6.5,73.947,73.947,0,0,1,15.033-6.635A41.553,41.553,0,0,1,61.85,24.857a17.074,17.074,0,0,1,6.393,1.856,6.6,6.6,0,0,1,3.358,3.64,9.1,9.1,0,0,1,.159,5.1,19.458,19.458,0,0,1-5.089,8.865,34.389,34.389,0,0,1-14.057,8.9,38.67,38.67,0,0,1-9.565,2.04,18.012,18.012,0,0,1-7.821-.942,10.174,10.174,0,0,1-4.309-2.926c-.21-.245-.478-.51-.869-.281a.742.742,0,0,0-.322.959,9.393,9.393,0,0,0,.746,1.8,10.255,10.255,0,0,0,3.412,3.23,16.692,16.692,0,0,0,8.483,2.328,42.674,42.674,0,0,0,13.374-1.7,32.811,32.811,0,0,0,16.048-9.682c3.63-4.045,6.223-8.611,6.778-14.124a13.671,13.671,0,0,0-1.277-7.781,14.066,14.066,0,0,0-6.137-6A25.979,25.979,0,0,0,59.076,17H54.854c-5.1,0-10.037,1.462-14.833,3.207a101.892,101.892,0,0,0-10.645,4.607c-7.526,3.76-14.534,8.295-20.291,14.529A30.3,30.3,0,0,0,2.392,49.912c-.408,1.181-.8,2.448-1.088,3.669M28.573,88.856a15.569,15.569,0,0,1-5.541,10.777,12.6,12.6,0,0,1-6.338,3.164,4.652,4.652,0,0,1-2.639-.184,2.693,2.693,0,0,1-1.516-2.756,9.972,9.972,0,0,1,1.49-5.08,18.158,18.158,0,0,1,4.644-5.1A71.17,71.17,0,0,1,27.75,83.56l.238-.1A15.933,15.933,0,0,1,28.573,88.856ZM53.216,69.874a32.956,32.956,0,0,1-.926,4.142A122.121,122.121,0,0,1,47.116,87.7a23.608,23.608,0,0,1-1.345,2.367,1.654,1.654,0,0,1-.277.327c-.566.559-1.1.53-1.389-.2a15.424,15.424,0,0,1-.714-2.66,14.1,14.1,0,0,1-.127-1.858,23.289,23.289,0,0,1,3.659-12.126,11.338,11.338,0,0,1,3.524-3.971,6.141,6.141,0,0,1,1.562-.692c.833-.234,1.344.151,1.206.985Zm16.812,21.42,6.043-7.055C76.322,86.859,71.869,92.09,70.028,91.294Zm19.3-4.748c-.427.245-.892.421-1.33.647-.4.208-.533,0-.545-.347a2.337,2.337,0,0,1,.091-.706A15.19,15.19,0,0,1,92.1,78.808l.157-.08a6.473,6.473,0,0,1-2.925,7.819Z" transform="translate(763.781 3450.769)" fill="#cb6699" fill-rule="evenodd"/>
  </g>
</svg>
