<!--?xml version="1.0" encoding="utf-8"?-->
<!-- Generator: Adobe Illustrator 19.1.1, SVG Export Plug-In . SVG Version: 6.00 Build 0)  -->
<svg version="1.1" id="_x31_0" xmlns="http://www.w3.org/2000/svg" xmlns:xlink="http://www.w3.org/1999/xlink" x="0px" y="0px" viewBox="0 0 512 512" style="width: 512px; height: 512px; opacity: 1;" xml:space="preserve">
<style type="text/css">
	.st0{fill:#374149;}
</style>
<g>
	<path class="st0" d="M256,0C114.617,0,0,114.614,0,256c0,141.383,114.617,256,256,256c141.386,0,256-114.617,256-256
		C512,114.614,397.386,0,256,0z M256,464c-114.691,0-208-93.309-208-208S141.309,48,256,48s208,93.309,208,208S370.691,464,256,464z
		" style="fill: rgb(0, 116, 154);"></path>
	<path class="st0" d="M368.718,273.789c2.692-9.015,4.059-16.042,4.43-22.789c0.968-16.926-3.918-33.453-15.387-52.023l-2.113-3.391
		c-4.871-7.773-9.906-15.812-12.446-24.992c-4.195-15.242,1.93-29.726,15.598-36.906c3.617-1.898,7.504-2.347,12.008-2.867
		l2.199,0.016l-4.797-3.813c-3.211-2.57-6.242-5-9.391-7.277c-16.57-11.973-34.758-20.766-54.062-26.137
		c-16.16-4.504-32.488-6.79-48.531-6.79c-5.461,0-10.988,0.266-16.434,0.79c-25.363,2.422-49.144,9.836-70.683,22.031
		c-22.684,12.863-41.626,29.984-56.778,51.445c-0.446,0.477-0.867,0.93-0.625,1.465c0.144,0.34,0.375,0.512,1.199,0.512
		c0.133,0,1.262-0.078,1.262-0.078c2.558,0.074,5.114,0.11,7.664,0.11c8.41,0,16.718-0.367,23.738-0.722
		c3.023-0.153,6.039-0.355,9.058-0.554c4.523-0.301,9.043-0.598,13.922-0.754c2.504,0,4.606,0.871,5.914,2.446
		c1.27,1.531,1.734,3.648,1.301,5.953c-0.664,3.492-2.863,5.242-7.125,5.672c-5.578,0.57-11.184,1.039-16.782,1.383
		c-0.976,0.062-1.508,0.234-1.718,0.554c-0.211,0.328-0.153,0.882,0.187,1.797c1.055,2.766,26.371,76.078,44.859,129.61
		c9.074,26.277,16.282,47.148,17.618,50.98l37.187-108.598c0.383-1.102,0.715-2.046,0.223-3.336
		c-8.668-22.859-17.282-45.718-25.817-68.629c-0.695-1.894-1.629-2.293-3.34-2.418l-3.613-0.254
		c-4.325-0.285-8.801-0.586-13.122-1.48c-2.137-0.434-3.82-1.618-4.742-3.336c-0.942-1.758-0.993-3.883-0.141-5.981
		c1.214-3.058,3.504-4.422,7.426-4.422l0.938,0.023l12.473,0.699c6.722,0.394,13.449,0.786,20.179,1.074
		c4.074,0.176,8.153,0.254,12.226,0.254c14.246,0,28.715-0.961,42.703-1.894l1.41-0.098c0.707-0.05,1.422-0.102,2.133-0.102
		c1.454,0,2.61,0.234,3.625,0.734c2.993,1.469,4.192,3.992,3.664,7.722c-0.453,3.114-2.863,5.207-6.445,5.606
		c-5.562,0.637-11.164,1.122-16.766,1.434c-1.242,0.062-1.887,0.27-2.164,0.684c-0.27,0.406-0.219,1.062,0.164,2.133
		c1.179,3.25,20.305,58.61,37.179,107.461c12.438,36,23.485,67.981,24.398,71.39l0.422-0.808c0.175-0.333,0.285-0.528,0.343-0.754
		l6.586-21.351C356.254,314.75,362.57,294.297,368.718,273.789z" style="fill: rgb(0, 116, 154);"></path>
	<path class="st0" d="M417.586,193.722c-2.515-5.898-5.472-11.644-8.488-17.172c0,0,0.153,3.246,0.222,4.106
		c1.664,18.016,1.367,31.321-4.957,50.004c-5.625,16.629-39.106,110.879-53.402,151.129l-7.078,19.946
		c37.066-21.562,63.648-53.554,76.89-92.554l0.574-1.742C433.695,269.711,432.328,228.266,417.586,193.722z" style="fill: rgb(0, 116, 154);"></path>
	<path class="st0" d="M91.211,203.094c-12.195,35.434-11.914,72.867,0.851,108.387c15.383,42.789,47.961,78.554,87.184,95.738
		c-3.078-9.402-81.153-217.507-82.016-219.316C94.946,192.922,92.922,198.031,91.211,203.094z" style="fill: rgb(0, 116, 154);"></path>
	<path class="st0" d="M257.438,275.883c0,0-16.946,48.23-23.043,65.492c-8.816,24.976-17.652,49.938-26.57,74.875
		c-0.324,0.914-0.371,1.476-0.164,1.866c0.199,0.375,0.668,0.649,1.523,0.883c11.45,3.086,22.895,5.019,34.028,5.75
		c4.25,0.281,8.492,0.426,12.71,0.426c0,0,0,0,0.004,0c19.809,0,39.122-3.223,57.297-9.371l-54.339-143.828
		C258.883,271.977,257.785,274.867,257.438,275.883z" style="fill: rgb(0, 116, 154);"></path>
</g>
</svg>
